<?xml version="1.0" encoding="UTF-8" standalone="no"?>
<svg
   xmlns:dc="http://purl.org/dc/elements/1.1/"
   xmlns:cc="http://creativecommons.org/ns#"
   xmlns:rdf="http://www.w3.org/1999/02/22-rdf-syntax-ns#"
   xmlns:svg="http://www.w3.org/2000/svg"
   xmlns="http://www.w3.org/2000/svg"
   xmlns:sodipodi="http://sodipodi.sourceforge.net/DTD/sodipodi-0.dtd"
   xmlns:inkscape="http://www.inkscape.org/namespaces/inkscape"
   viewBox="0 0 100 100"
   version="1.1"
   id="svg40"
   sodipodi:docname="body1.svg"
   inkscape:version="0.92.2 5c3e80d, 2017-08-06">
  <metadata
     id="metadata46">
    <rdf:RDF>
      <cc:Work
         rdf:about="">
        <dc:format>image/svg+xml</dc:format>
        <dc:type
           rdf:resource="http://purl.org/dc/dcmitype/StillImage" />
      </cc:Work>
    </rdf:RDF>
  </metadata>
  <defs
     id="defs44" />
  <sodipodi:namedview
     pagecolor="#ffffff"
     bordercolor="#666666"
     borderopacity="1"
     objecttolerance="10"
     gridtolerance="10"
     guidetolerance="10"
     inkscape:pageopacity="0"
     inkscape:pageshadow="2"
     inkscape:window-width="640"
     inkscape:window-height="480"
     id="namedview42"
     showgrid="false"
     inkscape:zoom="2.36"
     inkscape:cx="50"
     inkscape:cy="50"
     inkscape:window-x="0"
     inkscape:window-y="0"
     inkscape:window-maximized="0"
     inkscape:current-layer="svg40" />
  <g
     id="g38"
     transform="translate(2.5423729,-12.288136)"
     style="fill:#000000">
    <g
       id="g6">
      <path
         d="M 37.768101,34.742401 A 8,8 -25 0 0 52.269026,27.980509 M 37.768101,34.742401 A 8,8 -25 0 1 52.269026,27.980509"
         id="path2"
         inkscape:connector-curvature="0" />
      <path
         d="M 38.001695,40.073235 58.797324,37.1506 61.998305,59.926765 41.202676,62.8494 38.001695,40.073235"
         id="path4"
         inkscape:connector-curvature="0" />
    </g>
    <g
       id="g36">
      <g
         id="g20">
        <g
           id="g12">
          <path
             d="m 51.207892,63.496928 -5.512747,19.225234 -9.612617,-2.756373 5.512747,-19.225234 9.612617,2.756373"
             id="path8"
             inkscape:connector-curvature="0" />
          <path
             d="m 45.382669,81.108464 0.994383,18.973956 -8.987666,0.47103 -0.994383,-18.973963 8.987666,-0.471023"
             id="path10"
             inkscape:connector-curvature="0" />
        </g>
        <g
           id="g18">
          <path
             d="m 60.256307,61.204945 -2.502951,15.803013 -6.913819,-1.095041 2.502952,-15.803014 6.913818,1.095042"
             id="path14"
             inkscape:connector-curvature="0" />
          <path
             d="m 58.793705,76.617485 -0.593291,16.989644 -8.994518,-0.314095 0.593292,-16.989644 8.994517,0.314095"
             id="path16"
             inkscape:connector-curvature="0" />
        </g>
      </g>
      <g
         id="g34">
        <g
           id="g26">
          <path
             d="M 38.384421,48.73808 18.579059,45.954618 19.414098,40.01301 39.219459,42.796472 38.384421,48.73808"
             id="path22"
             inkscape:connector-curvature="0" />
          <path
             d="M 20.078138,46.312512 5.8122903,50.947767 3.6491713,44.290371 17.915019,39.655116 20.078138,46.312512"
             id="path24"
             inkscape:connector-curvature="0" />
        </g>
        <g
           id="g32">
          <path
             d="m 60.503436,39.463901 15.454813,4.141104 -1.811733,6.761481 -15.454813,-4.141105 1.811733,-6.76148"
             id="path28"
             inkscape:connector-curvature="0" />
          <path
             d="m 75.366287,42.496708 16.958589,1.18586 -0.627809,8.978076 -16.958589,-1.18586 0.627809,-8.978076"
             id="path30"
             inkscape:connector-curvature="0" />
        </g>
      </g>
    </g>
  </g>
</svg>
