<?xml version="1.0" ?>
<svg baseProfile="full" height="100" version="1.1" viewBox="0 0 100 100" width="100" xmlns="http://www.w3.org/2000/svg" xmlns:ev="http://www.w3.org/2001/xml-events" xmlns:xlink="http://www.w3.org/1999/xlink">
	<defs/>
	<path d="M 40.0,25.0 A 10.0,10.0 0 0,0 60.0,25.0 M 40.0,25.0 A 10.0,10.0 0 0,1 60.0,25.0" fill="[0, 0, 0]"/>
	<path d="M 35.0,29.5 L 65.0,29.5 L 65.0,70.5 L 35.0,70.5 L 35.0,29.5" fill="[0, 0, 0]"/>
	<path d="M 30.604432030529004,21.302399156584354 L 38.77401755575441,33.882457675765714 L 31.22598244424559,38.78420899090096 L 23.056396919020187,26.204150471719597 L 30.604432030529004,21.302399156584354" fill="[0, 0, 0]"/>
	<path d="M 71.44469232385514,50.6062426671322 L 61.603806888997525,39.28559896379062 L 68.39619311100248,33.38106770287605 L 78.23707854586009,44.70171140621763 L 71.44469232385514,50.6062426671322" fill="[0, 0, 0]"/>
	<path d="M 27.58786268161656,85.69467540284016 L 39.63296784498853,68.49248247277134 L 45.36703215501147,72.50751752722866 L 33.3219269916395,89.70971045729749 L 27.58786268161656,85.69467540284016" fill="[0, 0, 0]"/>
	<path d="M 75.26087635972931,82.2388786063409 L 56.0764217492347,73.6974091017491 L 58.9235782507653,67.3025908982509 L 78.10803286125991,75.8440604028427 L 75.26087635972931,82.2388786063409" fill="[0, 0, 0]"/>
</svg>
