<?xml version="1.0" ?>
<svg baseProfile="full" height="100" version="1.1" viewBox="0 0 100 100" width="100" xmlns="http://www.w3.org/2000/svg" xmlns:ev="http://www.w3.org/2001/xml-events" xmlns:xlink="http://www.w3.org/1999/xlink">
	<defs/>
	<path d="M 40.0,30.0 A 10.0,10.0 0 0,0 60.0,30.0 M 40.0,30.0 A 10.0,10.0 0 0,1 60.0,30.0" fill="[0, 0, 0]"/>
	<path d="M 40.0,29.5 L 60.0,29.5 L 60.0,70.5 L 40.0,70.5 L 40.0,29.5" fill="[0, 0, 0]"/>
	<path d="M 24.247207101337604,27.27245501542995 L 40.93651648353978,34.01537369691637 L 39.06348351646022,38.6512929697503 L 22.374174134258045,31.908374288263886 L 24.247207101337604,27.27245501542995" fill="[0, 0, 0]"/>
	<path d="M 71.65866699658875,22.39326576310068 L 62.12012024039107,37.65813149391635 L 57.87987975960893,35.00853517275032 L 67.41842651580662,19.743669441934653 L 71.65866699658875,22.39326576310068" fill="[0, 0, 0]"/>
	<path d="M 26.20058227324296,75.77559410255313 L 42.818356708891486,66.56421131787272 L 47.181643291108514,74.43578868212728 L 30.563868855459994,83.64717146680769 L 26.20058227324296,75.77559410255313" fill="[0, 0, 0]"/>
	<path d="M 54.5486579222353,90.02040702262222 L 50.598335796697874,71.43560260867991 L 59.401664203302126,69.56439739132009 L 63.35198632883955,88.1492018052624 L 54.5486579222353,90.02040702262222" fill="[0, 0, 0]"/>
</svg>
