<?xml version='1.0' encoding='utf8'?>
<svg xmlns:svg="http://www.w3.org/2000/svg" viewBox="0 0 100 100"><svg:g fill="black"><svg:g><svg:path d="M 37.768100948740454,34.742401007104334 A 8.000000000000002,8.000000000000002 -25 0,0 52.269025541326855,27.980508819253146 M 37.768100948740454,34.742401007104334 A 8.000000000000002,8.000000000000002 -25 0,1 52.269025541326855,27.980508819253146" /><svg:path d="M 38.00169461717276,40.07323476955263 L 58.79732406074574,37.15059964939125 L 61.99830538282724,59.92676523044737 L 41.20267593925426,62.84940035060875 L 38.00169461717276,40.07323476955263" /></svg:g><svg:g><svg:g><svg:g><svg:path d="M 51.2078917798391,63.4969283496534 L 45.69514466349912,82.72216226841978 L 36.08252770411593,79.96578871024978 L 41.59527482045591,60.740554791483405 L 51.2078917798391,63.4969283496534" /><svg:path d="M 45.38266909020311,81.10846368624154 L 46.37705225881904,100.08242484657843 L 37.38938644602788,100.55344845276494 L 36.395003277411945,81.57948729242803 L 45.38266909020311,81.10846368624154" /></svg:g><svg:g><svg:path d="M 60.25630721401698,61.204944638128524 L 57.753355773373286,77.00795808765074 L 50.83953738920732,75.91291683236912 L 53.342488829851014,60.10990338284691 L 60.25630721401698,61.204944638128524" /><svg:path d="M 58.79370530287623,76.61748519517117 L 58.20041385893372,93.6071292544958 L 49.205896415761856,93.2930337841733 L 49.799187859704375,76.30338972484867 L 58.79370530287623,76.61748519517117" /></svg:g></svg:g><svg:g><svg:g><svg:path d="M 38.38442064481294,48.73808037104137 L 18.57905926998153,45.954618351840054 L 19.414097875741927,40.013009939390635 L 39.21945925057333,42.796471958591944 L 38.38442064481294,48.73808037104137" /><svg:path d="M 20.078138053174044,46.312511952648386 L 5.812290308746746,50.947766868272595 L 3.6491713481221097,44.29037125420652 L 17.915019092549414,39.65511633858231 L 20.078138053174044,46.312511952648386" /></svg:g><svg:g><svg:path d="M 60.503436049124936,39.463900652643545 L 75.95824926975003,43.60500537428388 L 74.14651595403238,50.36648615830735 L 58.69170273340729,46.22538143666702 L 60.503436049124936,39.463900652643545" /><svg:path d="M 75.36628674373978,42.49670754012641 L 92.32487559815678,43.68256759377653 L 91.69706733445966,52.66064404611495 L 74.73847848004264,51.47478399246482 L 75.36628674373978,42.49670754012641" /></svg:g></svg:g></svg:g></svg:g></svg>