<?xml version='1.0' encoding='utf8'?>
<svg xmlns:svg="http://www.w3.org/2000/svg" viewBox="0 0 100 100"><svg:g fill="black"><svg:g><svg:path d="M 37.47646409894328,32.921861772557875 A 8.0,8.0 -23 0,0 52.20454175418233,26.670163716729494 M 37.47646409894328,32.921861772557875 A 8.0,8.0 -23 0,1 52.20454175418233,26.670163716729494" /><svg:path d="M 38.58331271882319,38.6461789901454 L 57.34939119013081,35.67392415438101 L 61.41668728117681,61.3538210098546 L 42.65060880986919,64.32607584561899 L 38.58331271882319,38.6461789901454" /></svg:g><svg:g><svg:g><svg:g><svg:path d="M 51.645499829529754,64.89868480793021 L 46.38280914452049,82.11217041526484 L 37.77606634085318,79.48082507276021 L 43.03875702586244,62.26733946542557 L 51.645499829529754,64.89868480793021" /><svg:path d="M 46.8347203241626,82.34158271588727 L 40.65438043666366,101.36271304179033 L 31.14381527371212,98.27254309804087 L 37.32415516121107,79.25141277213778 L 46.8347203241626,82.34158271588727" /></svg:g><svg:g><svg:path d="M 59.71785981412938,62.30615414002807 L 58.322730339246874,82.25743514522455 L 52.33734603768793,81.83889630275979 L 53.73247551257043,61.887615297563315 L 59.71785981412938,62.30615414002807" /><svg:path d="M 59.03877360673455,83.54659209765583 L 52.67046151866405,99.30871762529121 L 45.25299068212975,96.31186487796391 L 51.62130277020025,80.54973935032854 L 59.03877360673455,83.54659209765583" /></svg:g></svg:g><svg:g><svg:g><svg:path d="M 39.113030888224465,48.5320914446093 L 22.278473719617768,46.166148728288185 L 23.25268542633823,39.234272247097195 L 40.08724259494492,41.6002149634183 L 39.113030888224465,48.5320914446093" /><svg:path d="M 24.133660146280672,46.45898097083632 L 9.09857821370614,51.93130326404702 L 6.362417067100786,44.41376229775975 L 21.397498999675324,38.94144000454905 L 24.133660146280672,46.45898097083632" /></svg:g><svg:g><svg:path d="M 60.75320947311105,39.53416041258232 L 72.45486869901778,50.446134173582294 L 67.68088017858028,55.565610084916486 L 55.979220952673565,44.65363632391651 L 60.75320947311105,39.53416041258232" /><svg:path d="M 71.64117541642364,51.06300722560696 L 87.18409464556304,63.64941504660371 L 84.03749269031385,67.53514485388857 L 68.49457346117444,54.94873703289181 L 71.64117541642364,51.06300722560696" /></svg:g></svg:g></svg:g></svg:g></svg>